<?xml version="1.0" encoding="UTF-8"?>
<!DOCTYPE svg PUBLIC "-//W3C//DTD SVG 1.1//EN" "http://www.w3.org/Graphics/SVG/1.1/DTD/svg11.dtd">
<!-- Creator: CorelDRAW X7 -->
<svg xmlns="http://www.w3.org/2000/svg" xml:space="preserve" width="148mm" height="131mm" version="1.1" style="shape-rendering:geometricPrecision; text-rendering:geometricPrecision; image-rendering:optimizeQuality; fill-rule:evenodd; clip-rule:evenodd"
viewBox="0 0 14800 13100"
 xmlns:xlink="http://www.w3.org/1999/xlink">
 <defs>
  <style type="text/css">
   <![CDATA[
    .str0 {stroke:#5E821D;stroke-width:7.62}
    .str1 {stroke:#85AA42;stroke-width:7.62}
    .str2 {stroke:#A6D453;stroke-width:7.62}
    .fil23 {fill:#FEFEFE}
    .fil18 {fill:#F7B874}
    .fil27 {fill:#F19991}
    .fil26 {fill:#F18E3B}
    .fil34 {fill:#EA5854}
    .fil2 {fill:#FDFEFE}
    .fil13 {fill:#FBFDFE}
    .fil21 {fill:#F9FBFD}
    .fil4 {fill:#F9FAFA}
    .fil3 {fill:#F7F7F7}
    .fil7 {fill:#F3F7FC}
    .fil1 {fill:#F3F4F2}
    .fil15 {fill:#F0F4FB}
    .fil0 {fill:#EEEFEE}
    .fil29 {fill:#DE7C6F}
    .fil5 {fill:#E8EAE9}
    .fil25 {fill:#E19853}
    .fil14 {fill:#E3EEF9}
    .fil11 {fill:#E3EBF6}
    .fil12 {fill:#E0EBF7}
    .fil28 {fill:#D6D5D4}
    .fil24 {fill:#C7CBD3}
    .fil33 {fill:#B1B7B6}
    .fil22 {fill:#838D90}
    .fil19 {fill:#5E5549}
    .fil20 {fill:#698FC9}
    .fil6 {fill:#4673B8}
    .fil32 {fill:#272E31}
    .fil16 {fill:#2A3B41}
    .fil30 {fill:#1C53A2}
    .fil31 {fill:#1E458C}
    .fil17 {fill:#37451E}
    .fil8 {fill:#5E821D}
    .fil9 {fill:#85AA42}
    .fil10 {fill:#A6D453}
   ]]>
  </style>
 </defs>
 <g id="Layer_x0020_1">
  <metadata id="CorelCorpID_0Corel-Layer"/>
  <path class="fil0" d="M1316 3318l3187 0c409,0 507,-572 121,-707 -5,-1 -9,-3 -14,-5 426,-356 -510,-1107 -1527,-67 80,-347 -824,-222 -1101,251 -98,-310 -960,229 -666,528z"/>
  <path class="fil1" d="M9841 1891l1911 0c0,0 449,-170 391,-617 -58,-448 -735,-75 -735,-75 0,0 205,-625 -450,-448 -655,178 -719,797 -719,797 0,0 -861,-150 -398,343z"/>
  <path class="fil1" d="M11597 3150l1262 0c0,0 296,-111 258,-407 -39,-296 -485,-49 -485,-49 0,0 135,-413 -298,-296 -432,117 -474,526 -474,526 0,0 -569,-99 -263,226z"/>
  <path class="fil1" d="M11010 9213l271 294 -275 0 4 -294zm2 -369l262 0 -266 278 4 -278zm3 -300l257 265 -261 0 4 -265zm5 -350l249 0 -253 252 4 -252zm3 -277l245 240 -248 1 3 -241zm5 -320l237 -1 -240 230 3 -229zm3 -257l235 219 -238 0 3 -219zm265 -51l1 220 -234 -218 233 -2zm4 534l-244 1 242 -231 2 230zm2 277l-246 -240 244 0 2 240zm2 350l-255 1 253 -254 2 253zm3 300l-258 -264 256 -1 2 265zm-3 411l-268 1 266 -280 2 279zm4 328l-270 -293 268 0 2 293zm47 69l-4 -374 0 -22 -3 -333 0 -22 -3 -317 -1 -20 -2 -302 -1 -20 -2 -288 -1 -18 -2 -275 0 -18 -3 -263 0 -17 -2 -218c-11,7 -23,13 -37,17l2 184 -233 1 188 -172c-18,4 -38,6 -59,7l-155 142 3 -166c-14,-6 -26,-13 -36,-22l-4 229 0 17 -5 263 0 17 -5 275 0 19 -5 287 0 20 -6 302 0 20 -5 317 -1 21 -6 333 0 23 -6 373 -33 1613 449 6 -22 -1619z"/>
  <path class="fil1" d="M11003 7016l-1 39c10,8 22,15 36,21l1 -60 -36 0zm325 -2l-18 0 -13 -12 -107 99c21,-1 40,-4 58,-7l44 -40 0 27c14,-4 26,-10 36,-17l0 -50z"/>
  <path class="fil1" d="M11381 6984c3,19 -4,37 -19,54l-13 12c-6,5 -13,10 -21,14 -10,7 -22,13 -36,17 -13,5 -28,10 -44,13 -18,3 -37,6 -58,7l-8 0 -18 1c-49,-1 -93,-11 -126,-26 -14,-6 -26,-13 -36,-21l-3 -2 -12 -12c-14,-15 -20,-33 -17,-52l27 -149 -71 1 246 -125 256 116 -72 2 25 150z"/>
  <polygon class="fil1" points="12509,7172 12518,11171 12808,11171 14491,11171 14781,11171 14794,7172 "/>
  <polygon class="fil1" points="12950,6663 12951,7555 13131,7555 14173,7555 14352,7555 14354,6663 "/>
  <polygon class="fil2" points="12949,7555 12653,7555 12652,7288 12948,7288 "/>
  <polygon class="fil2" points="13516,7555 13221,7555 13220,7288 13516,7288 "/>
  <polygon class="fil2" points="14084,7555 13788,7555 13788,7288 14085,7288 "/>
  <polygon class="fil3" points="14652,7555 14356,7555 14356,7288 14653,7288 "/>
  <polygon class="fil3" points="12945,8042 12656,8042 12655,7781 12944,7781 "/>
  <polygon class="fil3" points="13512,8042 13223,8042 13222,7781 13512,7781 "/>
  <polygon class="fil2" points="14079,8042 13789,8042 13790,7781 14079,7781 "/>
  <polygon class="fil2" points="14645,8042 14356,8042 14357,7781 14646,7781 "/>
  <polygon class="fil3" points="12942,8517 12660,8517 12659,8263 12942,8263 "/>
  <polygon class="fil2" points="13509,8517 13226,8517 13226,8263 13509,8263 "/>
  <polygon class="fil2" points="14075,8517 13792,8517 13793,8263 14075,8263 "/>
  <polygon class="fil2" points="13515,7172 13213,7172 13213,6900 13515,6900 "/>
  <polygon class="fil3" points="14083,7172 13781,7172 13781,6900 14083,6900 "/>
  <polygon class="fil3" points="14641,8517 14359,8517 14359,8263 14642,8263 "/>
  <polygon class="fil2" points="12941,8980 12666,8980 12665,8732 12941,8732 "/>
  <polygon class="fil3" points="13507,8980 13231,8980 13231,8732 13507,8732 "/>
  <polygon class="fil3" points="14073,8980 13797,8980 13797,8732 14073,8732 "/>
  <polygon class="fil2" points="14639,8980 14363,8980 14363,8732 14639,8732 "/>
  <polygon class="fil3" points="12954,9502 12646,9502 12646,9225 12954,9225 "/>
  <polygon class="fil2" points="13518,9502 13211,9502 13211,9225 13519,9225 "/>
  <polygon class="fil2" points="14083,9502 13776,9502 13776,9225 14083,9225 "/>
  <polygon class="fil3" points="14648,9502 14340,9502 14341,9225 14648,9225 "/>
  <polygon class="fil3" points="12956,9942 12655,9942 12655,9672 12955,9672 "/>
  <polygon class="fil2" points="13520,9942 13220,9942 13219,9672 13520,9672 "/>
  <polygon class="fil3" points="14084,9942 13784,9942 13784,9672 14085,9672 "/>
  <polygon class="fil2" points="14649,9942 14348,9942 14349,9672 14650,9672 "/>
  <polygon class="fil2" points="12949,10437 12656,10437 12656,10175 12949,10175 "/>
  <polygon class="fil2" points="13513,10437 13220,10437 13219,10175 13513,10175 "/>
  <polygon class="fil3" points="14076,10437 13783,10437 13783,10175 14076,10175 "/>
  <polygon class="fil3" points="14639,10437 14346,10437 14347,10175 14640,10175 "/>
  <polygon class="fil3" points="12949,10888 12663,10888 12663,10632 12949,10632 "/>
  <polygon class="fil2" points="14638,10888 14352,10888 14353,10632 14639,10632 "/>
  <polygon class="fil4" points="14078,10632 13223,10632 13225,10696 13249,10696 13249,11171 13334,11171 13334,10696 13968,10696 13967,11171 14053,11171 14054,10696 14079,10696 "/>
  <polygon class="fil0" points="13655,11171 13338,11171 13338,10696 13655,10696 "/>
  <polygon class="fil1" points="13964,11171 13647,11171 13647,10696 13964,10696 "/>
  <polygon class="fil4" points="12512,8445 12518,11171 12155,11171 10044,11171 9681,11171 9655,8445 "/>
  <polygon class="fil0" points="11969,9051 12323,9051 12322,8732 11968,8732 "/>
  <polygon class="fil0" points="11262,9051 11616,9051 11615,8732 11260,8732 "/>
  <polygon class="fil0" points="10555,9051 10909,9051 10907,8732 10553,8732 "/>
  <polygon class="fil0" points="9848,9051 10203,9051 10200,8732 9845,8732 "/>
  <polygon class="fil0" points="11955,9672 12337,9672 12336,9329 11954,9329 "/>
  <polygon class="fil0" points="11250,9672 11632,9672 11630,9329 11248,9329 "/>
  <polygon class="fil0" points="10544,9672 10926,9672 10924,9329 10542,9329 "/>
  <polygon class="fil0" points="9839,9672 10221,9672 10218,9329 9836,9329 "/>
  <polygon class="fil0" points="11965,10241 12336,10241 12335,9908 11964,9908 "/>
  <polygon class="fil0" points="11260,10241 11631,10241 11629,9908 11259,9908 "/>
  <polygon class="fil0" points="10556,10241 10926,10241 10924,9908 10553,9908 "/>
  <polygon class="fil0" points="9851,10241 10221,10241 10219,9908 9848,9908 "/>
  <polygon class="fil0" points="11973,10824 12333,10824 12332,10502 11972,10502 "/>
  <polygon class="fil0" points="9862,10824 10221,10824 10218,10502 9859,10502 "/>
  <polygon class="fil4" points="10539,10502 11651,10502 11651,10599 11580,10599 11583,11171 11480,11171 11477,10599 10714,10599 10718,11171 10616,11171 10612,10599 10540,10599 "/>
  <polygon class="fil0" points="11102,11171 11482,11171 11480,10599 11098,10599 "/>
  <polygon class="fil1" points="10716,11171 11097,11171 11093,10599 10712,10599 "/>
  <path class="fil1" d="M4002 6110c0,-42 0,-85 0,-128 0,-20 -30,-20 -30,0 0,47 0,94 0,141 0,9 7,15 15,15 48,5 84,65 43,105 -38,39 -99,9 -104,-43 -2,-19 -33,-20 -31,0 8,76 96,126 157,65 56,-57 18,-137 -50,-155z"/>
  <path class="fil3" d="M1750 6122l-258 -258 258 0 0 258zm0 655l-258 -257 258 0 0 257zm0 655l-258 -257 258 0 0 257zm-258 357l258 -258 0 258 -258 0zm229 -287l-258 258 0 -258 258 0zm29 -626l0 258 -258 0 258 -258zm-29 -29l-258 258 0 -258 258 0zm29 -626l0 258 -258 0 258 -258zm-29 -29l-258 258 0 -258 258 0zm29 -626l0 258 -258 0 258 -258zm-29 -29l-258 258 0 -258 258 0zm-258 -299l258 258 -258 0 0 -258zm0 655l258 258 -258 0 0 -258zm0 655l258 258 -258 0 0 -258zm0 655l258 258 -258 0 0 -258zm287 -2014l0 278 -293 -293 -14 15 -20 0 0 327 0 21 0 307 0 20 0 308 0 20 0 307 0 21 0 307 0 20 0 307 0 21 0 307 0 20 0 328 367 0 0 -328 0 -20 0 -307 0 -21 0 -307 0 -20 0 -307 0 -21 0 -307 0 -20 0 -308 0 -20 0 -307 0 -21 0 -327 -40 0z"/>
  <path class="fil3" d="M1533 4565l176 -176 0 176 -176 0zm176 217l-176 -176 176 0 0 176zm-29 -422l-176 176 0 -176 176 0zm-216 -41l0 246 0 20 0 246 40 0 0 -197 211 211 14 -14 21 0 0 -246 0 -20 0 -246 -286 0z"/>
  <polygon class="fil0" points="792,5680 302,5680 302,5189 792,5189 "/>
  <polygon class="fil0" points="3994,5898 3966,5898 3966,4953 1683,4194 1532,4194 309,4955 295,4932 1524,4167 1687,4167 1689,4168 3994,4933 "/>
  <path class="fil3" d="M3539 4964l175 0 0 176 -175 -176zm-29 204l0 -175 176 175 -176 0zm-41 0l-175 0 175 -175 0 175zm-204 -204l175 0 -175 176 0 -176zm-41 204l-176 0 176 -175 0 175zm-204 -204l175 0 -175 176 0 -176zm-41 176l-176 -176 176 0 0 176zm-205 28l0 -175 176 175 -176 0zm-40 0l-176 0 176 -175 0 175zm-205 -204l176 0 -176 176 0 -176zm-41 176l-175 -176 175 0 0 176zm-204 28l0 -175 176 175 -176 0zm-41 0l-175 0 175 -175 0 175zm-204 -204l175 0 -175 176 0 -176zm-41 176l-176 -176 176 0 0 176zm-204 28l0 -175 175 175 -175 0zm-41 0l-176 0 176 -175 0 175zm-205 -204l176 0 -176 176 0 -176zm-40 176l-176 -176 176 0 0 176zm-205 28l0 -175 176 175 -176 0zm-41 0l-175 0 175 -175 0 175zm-204 -204l176 0 -176 176 0 -176zm-41 176l-175 -176 175 0 0 176zm-204 28l0 -175 175 175 -175 0zm-41 0l-176 0 176 -175 0 175zm-204 -204l175 0 -175 176 0 -176zm-41 176l-176 -176 176 0 0 176zm-205 28l0 -175 176 175 -176 0zm3433 -204l176 0 -176 176 0 -176zm-41 246l28 0 287 -287 -294 0 -21 0 -224 0 -21 0 -225 0 -20 0 -225 0 -20 0 -225 0 -20 0 -225 0 -21 0 -224 0 -21 0 -225 0 -20 0 -225 0 -20 0 -225 0 -20 0 -225 0 -21 0 -224 0 -21 0 -225 0 -20 0 -225 0 -20 0 -245 0 0 286 245 0 20 0 225 0 20 0 225 0 21 0 224 0 21 0 225 0 20 0 225 0 20 0 225 0 20 0 225 0 21 0 224 0 21 0 225 0 20 0 225 0 20 0 225 0 20 0 225 0 21 0 224 0 0 1z"/>
  <path class="fil3" d="M1972 5300l-754 0 27 -317c8,-86 79,-152 165,-152l360 0c84,0 155,63 164,147l38 322z"/>
  <polygon class="fil2" points="1484,5108 1339,5108 1339,4963 1484,4963 "/>
  <polygon class="fil2" points="1667,5108 1522,5108 1522,4963 1667,4963 "/>
  <polygon class="fil2" points="1850,5108 1705,5108 1705,4963 1850,4963 "/>
  <path class="fil0" d="M1705 4241c0,54 -44,98 -98,98 -55,0 -99,-44 -99,-98 0,-55 44,-99 99,-99 54,0 98,44 98,99z"/>
  <path class="fil0" d="M3987 6067c-47,0 -84,-38 -84,-85l0 -84 168 0 0 84c0,47 -37,85 -84,85z"/>
  <polygon class="fil4" points="-6,7172 59,11171 349,11171 2032,11171 2322,11171 2279,7172 "/>
  <polygon class="fil0" points="136,7288 144,7775 146,7908 149,8042 445,8042 443,7908 441,7775 433,7288 "/>
  <polygon class="fil0" points="704,7288 712,7775 714,7908 715,8042 1012,8042 1010,7908 1008,7775 1001,7288 "/>
  <polygon class="fil0" points="1272,7288 1279,7775 1281,7908 1282,8042 1579,8042 1577,7908 1576,7775 1569,7288 "/>
  <polygon class="fil0" points="1840,7288 1846,7775 1849,7981 1849,8042 2146,8042 2145,7981 2143,7775 2137,7288 "/>
  <polygon class="fil0" points="154,8263 162,8749 164,8882 166,9016 463,9016 461,8882 459,8749 452,8263 "/>
  <polygon class="fil0" points="721,8263 728,8749 731,8937 732,9016 1029,9016 1028,8937 1025,8749 1018,8263 "/>
  <polygon class="fil0" points="1287,8263 1294,8749 1295,8882 1297,9016 1594,9016 1592,8882 1591,8749 1585,8263 "/>
  <polygon class="fil0" points="1854,8263 1859,8749 1861,8882 1863,9016 2159,9016 2158,8882 2156,8749 2151,8263 "/>
  <polygon class="fil0" points="171,9225 179,9709 181,9842 183,9975 480,9975 478,9842 476,9709 468,9225 "/>
  <polygon class="fil0" points="736,9225 743,9709 745,9842 747,9975 1044,9975 1042,9842 1040,9709 1033,9225 "/>
  <polygon class="fil0" points="1301,9225 1308,9709 1309,9842 1311,9975 1607,9975 1606,9842 1604,9709 1598,9225 "/>
  <polygon class="fil0" points="1866,9225 1872,9709 1874,9893 1875,9975 2171,9975 2170,9893 2168,9709 2163,9225 "/>
  <polygon class="fil0" points="2031,10175 1884,10175 1610,10175 1316,10175 1042,10175 748,10175 181,10175 185,10437 752,10437 1045,10437 1320,10437 1613,10437 1887,10437 2034,10437 2180,10437 2177,10175 "/>
  <polygon class="fil2" points="1609,10632 755,10632 754,10696 780,10696 787,11171 873,11171 866,10696 1499,10696 1506,11171 1591,11171 1585,10696 1609,10696 "/>
  <polygon class="fil0" points="1193,11171 876,11171 870,10696 1186,10696 "/>
  <polygon class="fil0" points="1502,11171 1185,11171 1179,10696 1496,10696 "/>
  <polygon class="fil0" points="4434,7403 4460,11171 4187,11171 2600,11171 2327,11171 2281,7403 "/>
  <polygon class="fil3" points="3673,10241 3790,10241 4312,10241 4312,10361 4313,10482 4317,10919 4046,10919 4043,10470 3779,10470 3675,10470 3523,10470 3521,10241 "/>
  <polygon class="fil3" points="2644,10241 2748,10241 3243,10241 3246,10470 2733,10470 2738,10919 2468,10919 2463,10482 2461,10307 2460,10241 "/>
  <polygon class="fil4" points="3021,10664 3756,10664 3757,10728 3765,10728 3768,11171 3689,11171 3685,10728 3094,10728 3099,11171 3019,11171 3014,10728 3022,10728 "/>
  <polygon class="fil1" points="3391,11171 3686,11171 3682,10728 3386,10728 "/>
  <polygon class="fil5" points="3102,11171 3397,11171 3393,10728 3097,10728 "/>
  <polygon class="fil3" points="3483,7555 4302,7555 4307,8263 3489,8263 "/>
  <polygon class="fil3" points="2420,7555 3240,7555 3247,8263 2429,8263 "/>
  <polygon class="fil3" points="3505,8445 4290,8445 4295,9121 3511,9121 "/>
  <polygon class="fil3" points="2445,8445 3229,8445 3236,9121 2453,9121 "/>
  <polygon class="fil3" points="3513,9364 4302,9364 4307,10042 3520,10042 "/>
  <polygon class="fil3" points="2456,9364 3245,9364 3252,10042 2464,10042 "/>
  <path class="fil6" d="M3367 3453c-719,374 -1278,1003 -1718,1685 -625,969 -1048,2131 -869,3271 179,1140 1086,2210 2234,2301 1471,117 2668,-1278 4136,-1431 559,-59 1119,68 1680,104 1660,106 3351,-644 4388,-1945 680,-853 1086,-1977 873,-3047 -221,-1112 -1098,-2031 -2148,-2455 -1049,-424 -2244,-394 -3332,-81 -1008,289 -1812,844 -2715,1342 -364,201 -777,-69 -1184,-74 -466,-6 -933,115 -1345,330z"/>
  <path class="fil7" d="M2942 10703c-70,-8 -139,-20 -207,-35 -92,-21 -183,-48 -271,-80 -50,-19 -100,-40 -149,-62 -59,-27 -117,-57 -174,-89 -22,-12 -44,-25 -65,-38 95,-255 178,-494 228,-680 110,-404 314,-1289 469,-1968 71,700 148,1541 159,1990 6,252 9,602 10,962zm621 -16c31,-313 59,-617 75,-850 50,-728 -106,-3057 -106,-3057l-24 -5c147,-545 221,-948 254,-1249 55,74 114,144 179,209 73,78 159,143 254,192l21 10c7,3 18,9 28,11 19,7 39,12 59,15 24,5 47,7 71,7 15,0 31,-1 46,-3 3,0 5,-1 8,-1l0 4453c-38,16 -76,33 -115,48 -89,37 -179,71 -269,101 -158,52 -318,93 -481,119zm-2064 -772c-374,-416 -632,-953 -719,-1506 -4,-28 -8,-57 -12,-85l972 326c-73,380 -141,737 -184,984 -15,85 -34,180 -57,281zm8948 -692l0 -1093 1 0 0 -75 -1 0 0 -1338c102,7 210,11 306,11 149,0 270,-10 298,-38 71,-70 142,-182 318,-422l5 3c21,50 52,101 100,147 0,0 68,245 119,455 -5,8 -9,17 -12,27l-311 909 148 53c1,0 2,1 3,1l182 66c-24,267 -52,578 -80,883 -86,44 -173,86 -262,125 -263,117 -536,212 -814,286zm2478 -1450c-16,-52 -37,-104 -59,-153l62 -188c7,-23 11,-47 11,-71 0,-92 -57,-179 -147,-211l-123 -44 107 -320c19,-57 32,-112 32,-163 0,-26 -3,-52 -12,-76 13,-56 21,-128 24,-220 0,0 -1,-112 -5,-254 36,-13 72,-23 108,-26l0 0c-21,-240 -49,-400 -95,-479 -27,-46 -55,-93 -96,-126 -18,-14 -50,-25 -80,-32 -7,-2 -15,-3 -22,-4 -6,-2 -12,-4 -18,-6 -9,-1 -17,-2 -26,-2 0,0 0,0 0,0 -43,0 -91,1 -142,4l11 -19c-59,1 -123,5 -189,14 -31,3 -63,6 -95,10 -110,-56 -189,-282 -224,-415l-128 366c13,15 25,31 36,48 3,5 7,10 10,15 0,0 0,0 0,0 6,11 12,22 16,34 -19,4 -38,9 -58,13 -53,13 -108,29 -160,45 -3,12 -6,25 -8,40 -3,1 -6,2 -10,3l0 0c-95,12 -409,228 -569,521l0 0 46 30c-59,71 -242,291 -264,300 -76,34 -246,73 -411,102l0 -2136 1 0 0 -75 -1 0 0 -2675c513,22 1020,121 1496,313 1050,424 1927,1343 2148,2455 38,193 57,388 57,583 0,716 -245,1430 -633,2047 -33,51 -66,102 -100,151 -27,39 -54,78 -82,116 -37,50 -74,99 -113,147 0,1 -1,2 -2,3 -31,39 -63,79 -96,117 -64,75 -129,148 -197,218zm-10931 -413l-116 -39c14,-57 42,-142 42,-217 0,-41 -9,-80 -32,-108 -42,-51 -106,-41 -164,-52 -103,-21 -209,-111 -317,-111 -6,0 -13,1 -19,1 -39,4 -61,21 -78,57 -18,40 -7,85 -31,127 -12,22 -28,43 -46,60 -7,7 -11,14 -13,22l-376 -126c149,-649 443,-1275 805,-1836 352,-547 781,-1059 1308,-1434 24,44 49,80 61,97 -21,111 -25,200 10,293 -14,158 -50,330 -137,409l-17 -2c-104,-17 -213,-26 -300,-32l-3 -1 -5 0c-2,0 -4,0 -6,0 -91,0 -167,73 -170,165 -8,251 -28,692 -96,1090 -129,926 -256,1110 -256,1110l59 12c-24,120 -60,301 -103,515zm-209 -70l-273 -92 -197 -66c44,-54 54,-112 87,-173 5,-9 7,-16 7,-21 0,-2 -1,-3 -1,-5 4,2 10,3 19,4 21,2 43,14 62,21 50,20 98,43 148,61 44,16 121,9 158,30 20,12 27,37 27,66 0,60 -29,141 -37,175zm10815 -208l-20 -7 -1 -7c-1,-2 -2,-3 -3,-4 -7,-129 -11,-253 -7,-389 1,2 2,3 3,4 20,23 54,46 91,46 20,0 40,-6 60,-24 -4,20 -9,40 -16,60l-107 321zm-8215 -1486c-6,-1 -9,-2 -9,-2l-2 -1 -1 0 -7 -4c-52,-34 -99,-76 -138,-124 -49,-57 -94,-117 -137,-179 -43,-64 -84,-132 -125,-201 -20,-34 -40,-69 -58,-104 -19,-34 -39,-72 -55,-103l0 -5c-32,-62 -89,-102 -153,-113 -20,-18 -43,-33 -68,-44 -58,-28 -118,-52 -179,-72 -9,-2 -18,-4 -27,-7 0,0 0,0 0,0 -124,-59 -154,-140 -143,-226 0,0 0,0 0,0l24 -91 0 0c0,0 0,0 0,-1 11,2 23,2 35,2 49,0 99,-11 146,-34 60,-30 109,-77 141,-136 54,-94 99,-227 110,-358 22,-43 33,-89 33,-136 0,-46 -11,-93 -33,-135l-56 -28c-18,-32 -42,-61 -71,-86 -19,-17 -40,-32 -61,-43 278,-122 575,-202 877,-231l0 2454c-14,5 -29,7 -43,8z"/>
  <path class="fil4" d="M14258 12744c0,221 -3051,399 -6815,399 -3763,0 -6814,-178 -6814,-399 0,-220 3051,-398 6814,-398 3764,0 6815,178 6815,398z"/>
  <polygon class="fil6" points="4309,1086 4440,1256 10445,1256 10577,1086 "/>
  <polygon class="fil8 str0" points="10447,1254 10447,1086 10577,1086 "/>
  <polygon class="fil9" points="4428,1240 4309,1086 4428,1086 "/>
  <polygon class="fil6" points="10447,11558 4428,11558 4428,868 10447,868 "/>
  <path class="fil10" d="M10447 11558l-6019 0 0 -5592c62,-9 121,-30 175,-60 89,-51 169,-115 239,-189 123,-134 229,-282 316,-441 42,-63 25,-148 -37,-190 -24,-16 -50,-23 -76,-23 -44,0 -88,21 -114,60l-4 6c-23,28 -49,60 -75,91 -26,31 -53,60 -79,89 -52,58 -107,112 -166,162 -49,45 -105,83 -166,111 -4,2 -8,4 -13,6l0 -4502 5 0c-3,14 -4,29 -3,45 8,69 68,125 134,125 50,0 89,-30 103,-75 23,45 69,75 118,75 49,0 89,-30 103,-75 23,45 68,75 117,75 50,0 89,-30 104,-75 23,45 68,75 117,75 49,0 89,-30 104,-75 22,45 67,75 116,75 50,0 90,-30 106,-75 21,45 66,75 115,75 49,0 90,-30 106,-75 21,45 65,75 115,75 49,0 90,-30 106,-75 21,45 65,75 114,75 49,0 90,-30 107,-75 21,45 64,75 114,75 49,0 90,-30 107,-75 20,45 64,75 113,75 50,0 91,-30 108,-75 20,45 64,75 113,75 49,0 91,-30 109,-75 19,45 62,75 111,75 50,0 92,-30 110,-75 19,45 62,75 111,75 49,0 91,-30 110,-75 19,45 61,75 110,75 50,0 92,-30 111,-75 18,45 61,75 110,75 49,0 92,-30 111,-75 18,45 60,75 110,75 49,0 92,-30 111,-75 18,45 60,75 109,75 49,0 93,-30 112,-75 18,45 59,75 109,75 49,0 92,-30 113,-75 17,45 58,75 107,75 49,0 93,-30 114,-75 16,45 58,75 107,75 49,0 93,-30 114,-75 16,45 57,75 106,75 50,0 94,-30 115,-75 16,45 57,75 106,75 49,0 94,-30 115,-75 16,45 56,75 105,75 50,0 94,-30 116,-75 16,45 56,75 105,75 49,0 94,-30 116,-75 15,45 55,75 105,75 49,0 94,-30 117,-75 14,45 54,75 103,75 49,0 95,-30 118,-75 14,45 53,75 103,75 66,0 126,-56 133,-125 2,-16 1,-31 -3,-45l18 0 0 3212 -6017 0 0 75 6017 0 0 2136c-128,21 -253,36 -331,36 -18,0 -33,-1 -46,-2 0,0 -1,-1 -2,-1 -36,0 -83,94 -10,125 41,18 205,38 389,50l0 1338 -6005 0 0 75 6005 0 0 1093 0 1948 0 387zm-4067 -332l8 161 2032 0 8 -161 -2048 0zm1115 -801l-8 801 772 0 38 -801 -802 0zm-918 0l-5 801 772 0 3 -801 -770 0zm-349 -465l10 181 2336 0 9 -181 -2355 0zm4219 -9045l-6019 0 0 -15 11 15 6007 0 1 -1 0 1z"/>
  <path class="fil11" d="M4564 1256c-66,0 -126,-56 -134,-125 -1,-16 0,-31 3,-45l222 0c-4,14 -5,29 -3,45 2,18 7,35 15,50 -14,45 -53,75 -103,75z"/>
  <path class="fil11" d="M4785 1256c-49,0 -95,-30 -118,-75 -8,-15 -13,-32 -15,-50 -2,-16 -1,-31 3,-45l222 0c-4,14 -5,29 -4,45 2,18 7,35 15,50 -14,45 -54,75 -103,75z"/>
  <path class="fil11" d="M5005 1256c-49,0 -94,-30 -117,-75 -8,-15 -13,-32 -15,-50 -1,-16 0,-31 4,-45l222 0c-4,14 -5,29 -4,45 1,18 6,35 14,50 -15,45 -54,75 -104,75z"/>
  <path class="fil11" d="M5226 1256c-49,0 -94,-30 -117,-75 -8,-15 -13,-32 -14,-50 -1,-16 0,-31 4,-45l222 0c-4,14 -6,29 -5,45 2,18 7,35 14,50 -15,45 -55,75 -104,75z"/>
  <path class="fil11" d="M5446 1256c-49,0 -94,-30 -116,-75 -7,-15 -12,-32 -14,-50 -1,-16 1,-31 5,-45l222 0c-4,14 -6,29 -5,45 1,18 6,35 14,50 -16,45 -56,75 -106,75z"/>
  <path class="fil11" d="M5667 1256c-49,0 -94,-30 -115,-75 -8,-15 -13,-32 -14,-50 -1,-16 1,-31 5,-45l222 0c-5,14 -6,29 -5,45 1,18 5,35 13,50 -16,45 -57,75 -106,75z"/>
  <path class="fil11" d="M5888 1256c-50,0 -94,-30 -115,-75 -8,-15 -12,-32 -13,-50 -1,-16 0,-31 5,-45l222 0c-5,14 -7,29 -6,45 1,18 6,35 13,50 -16,45 -57,75 -106,75z"/>
  <path class="fil11" d="M6108 1256c-49,0 -93,-30 -114,-75 -7,-15 -12,-32 -13,-50 -1,-16 1,-31 6,-45l221 0c-4,14 -6,29 -5,45 1,18 5,35 12,50 -17,45 -58,75 -107,75z"/>
  <path class="fil11" d="M6329 1256c-50,0 -93,-30 -114,-75 -7,-15 -11,-32 -12,-50 -1,-16 1,-31 5,-45l222 0c-4,14 -6,29 -6,45 1,18 5,35 12,50 -17,45 -58,75 -107,75z"/>
  <path class="fil11" d="M6549 1256c-49,0 -93,-30 -113,-75 -7,-15 -11,-32 -12,-50 0,-16 2,-31 6,-45l222 0c-4,14 -7,29 -6,45 0,18 4,35 11,50 -17,45 -58,75 -108,75z"/>
  <path class="fil11" d="M6770 1256c-49,0 -93,-30 -113,-75 -7,-15 -11,-32 -11,-50 -1,-16 2,-31 6,-45l222 0c-5,14 -7,29 -7,45 1,18 5,35 12,50 -18,45 -60,75 -109,75z"/>
  <path class="fil11" d="M6990 1256c-49,0 -92,-30 -111,-75 -7,-15 -11,-32 -12,-50 0,-16 2,-31 7,-45l222 0c-5,14 -7,29 -7,45 0,18 4,35 11,50 -18,45 -60,75 -110,75z"/>
  <path class="fil11" d="M7211 1256c-49,0 -92,-30 -111,-75 -7,-15 -11,-32 -11,-50 0,-16 2,-31 7,-45l222 0c-5,14 -8,29 -8,45 1,18 4,35 11,50 -19,45 -61,75 -110,75z"/>
  <path class="fil11" d="M7431 1256c-49,0 -91,-30 -110,-75 -7,-15 -10,-32 -11,-50 0,-16 3,-31 8,-45l222 0c-5,14 -8,29 -8,45 0,18 4,35 10,50 -19,45 -61,75 -111,75z"/>
  <path class="fil11" d="M7652 1256c-49,0 -92,-30 -110,-75 -6,-15 -10,-32 -10,-50 0,-16 3,-31 8,-45l222 0c-5,14 -8,29 -8,45 -1,18 3,35 9,50 -19,45 -62,75 -111,75z"/>
  <path class="fil11" d="M7873 1256c-50,0 -92,-30 -110,-75 -6,-15 -10,-32 -9,-50 0,-16 3,-31 8,-45l222 0c-6,14 -9,29 -9,45 0,18 3,35 9,50 -19,45 -62,75 -111,75z"/>
  <path class="fil11" d="M8093 1256c-49,0 -91,-30 -109,-75 -6,-15 -9,-32 -9,-50 0,-16 3,-31 9,-45l222 0c-6,14 -9,29 -9,45 -1,18 2,35 8,50 -19,45 -63,75 -112,75z"/>
  <path class="fil11" d="M8314 1256c-50,0 -91,-30 -109,-75 -6,-15 -9,-32 -8,-50 0,-16 3,-31 9,-45l221 0c-5,14 -8,29 -9,45 0,18 3,35 9,50 -21,45 -64,75 -113,75z"/>
  <path class="fil11" d="M8534 1256c-49,0 -90,-30 -107,-75 -6,-15 -9,-32 -9,-50 1,-16 4,-31 9,-45l222 0c-5,14 -9,29 -9,45 -1,18 2,35 8,50 -21,45 -65,75 -114,75z"/>
  <path class="fil11" d="M8755 1256c-49,0 -91,-30 -107,-75 -6,-15 -9,-32 -8,-50 0,-16 4,-31 9,-45l222 0c-5,14 -9,29 -10,45 -1,18 2,35 8,50 -21,45 -65,75 -114,75z"/>
  <path class="fil11" d="M8975 1256c-49,0 -90,-30 -106,-75 -6,-15 -9,-32 -8,-50 1,-16 5,-31 10,-45l222 0c-6,14 -9,29 -10,45 -1,18 1,35 7,50 -21,45 -65,75 -115,75z"/>
  <path class="fil11" d="M9196 1256c-49,0 -90,-30 -106,-75 -6,-15 -8,-32 -7,-50 1,-16 4,-31 10,-45l222 0c-6,14 -10,29 -11,45 -1,18 2,35 7,50 -21,45 -66,75 -115,75z"/>
  <path class="fil11" d="M9416 1256c-49,0 -89,-30 -105,-75 -5,-15 -8,-32 -7,-50 1,-16 5,-31 11,-45l222 0c-6,14 -10,29 -11,45 -1,18 1,35 6,50 -22,45 -66,75 -116,75z"/>
  <path class="fil11" d="M9637 1256c-49,0 -89,-30 -105,-75 -5,-15 -7,-32 -6,-50 1,-16 5,-31 11,-45l222 0c-6,14 -10,29 -11,45 -2,18 0,35 5,50 -22,45 -67,75 -116,75z"/>
  <path class="fil11" d="M9858 1256c-50,0 -90,-30 -105,-75 -5,-15 -7,-32 -5,-50 1,-16 5,-31 11,-45l222 0c-6,14 -10,29 -12,45 -2,18 1,35 6,50 -23,45 -68,75 -117,75z"/>
  <path class="fil11" d="M10078 1256c-49,0 -89,-30 -103,-75 -5,-15 -8,-32 -6,-50 2,-16 6,-31 12,-45l222 0c-7,14 -11,29 -12,45 -2,18 0,35 5,50 -23,45 -69,75 -118,75z"/>
  <path class="fil11" d="M10299 1256c-50,0 -89,-30 -103,-75 -5,-15 -7,-32 -5,-50 1,-16 5,-31 12,-45l226 0c4,14 5,29 3,45 -7,69 -67,125 -133,125z"/>
  <polygon class="fil9 str1" points="4309,915 10578,915 10577,1086 4309,1086 "/>
  <polygon class="fil6" points="4308,743 4439,915 10446,915 10578,743 "/>
  <polygon class="fil8 str0" points="10446,915 10446,743 4439,743 4439,915 4308,743 10578,743 "/>
  <polygon class="fil9" points="4308,570 10579,570 10578,743 4308,743 "/>
  <polygon class="fil6" points="4439,743 10446,743 10446,915 4439,915 "/>
  <polygon class="fil12" points="10446,915 4439,915 4439,743 10446,743 "/>
  <polygon class="fil13" points="10448,4373 10447,4373 10447,4298 10448,4298 "/>
  <polygon class="fil14" points="10447,4373 4430,4373 4430,4298 10447,4298 "/>
  <polygon class="fil2" points="10448,8130 10447,8130 10447,8055 10448,8055 "/>
  <polygon class="fil15" points="10447,8130 4442,8130 4442,8055 10447,8055 "/>
  <polygon class="fil9" points="6421,2391 5677,2391 5677,1585 6421,1585 "/>
  <polygon class="fil9" points="7850,2391 7106,2391 7106,1585 7850,1585 "/>
  <polygon class="fil9" points="9279,2391 8535,2391 8535,1585 9279,1585 "/>
  <polygon class="fil9 str1" points="6421,3596 5677,3596 5677,2791 6421,2791 "/>
  <polygon class="fil9" points="7850,3596 7106,3596 7106,2791 7850,2791 "/>
  <polygon class="fil9" points="9279,3596 8535,3596 8535,2791 9279,2791 "/>
  <polygon class="fil9" points="6421,9440 5677,9440 5677,8635 6421,8635 "/>
  <polygon class="fil9" points="7850,9440 7106,9440 7106,8635 7850,8635 "/>
  <polygon class="fil9" points="9279,9440 8535,9440 8535,8635 9279,8635 "/>
  <polygon class="fil9" points="5624,11136 4880,11136 4880,10330 5624,10330 "/>
  <polygon class="fil9" points="9996,11136 9252,11136 9252,10330 9996,10330 "/>
  <polygon class="fil9" points="6421,5813 5677,5813 5677,5008 6421,5008 "/>
  <polygon class="fil9" points="7850,5813 7106,5813 7106,5008 7850,5008 "/>
  <polygon class="fil9" points="9279,5813 8535,5813 8535,5008 9279,5008 "/>
  <polygon class="fil9" points="6421,7019 5677,7019 5677,6214 6421,6214 "/>
  <polygon class="fil9" points="7850,7019 7106,7019 7106,6214 7850,6214 "/>
  <polygon class="fil9" points="9279,7019 8535,7019 8535,6214 9279,6214 "/>
  <polygon class="fil15" points="7344,11226 6572,11226 6577,10425 7347,10425 "/>
  <polygon class="fil15" points="8259,11226 7487,11226 7495,10425 8297,10425 "/>
  <polygon class="fil6" points="8420,11387 6388,11387 6380,11226 8428,11226 "/>
  <polygon class="fil9" points="8420,11387 6388,11387 6380,11226 8428,11226 "/>
  <polygon class="fil9" points="8502,11558 6316,11558 6308,11399 8510,11399 "/>
  <polygon class="fil9" points="8574,10141 6238,10141 6228,9960 8583,9960 "/>
  <polygon class="fil16" points="6238,10141 6577,10425 8297,10425 8574,10141 "/>
  <path class="fil9" d="M6397 10274l119 952 95 0 -38 -952c-55,-29 -124,-29 -176,0z"/>
  <path class="fil9" d="M8449 10274l-117 952 -95 0 36 -952c52,-35 127,-35 176,0z"/>
  <path class="fil17 str0" d="M5456 309c0,-155 118,-266 280,-266 94,0 170,35 220,97l-92 83c-32,-39 -71,-60 -120,-60 -84,0 -143,58 -143,146 0,88 59,146 143,146 49,0 88,-21 120,-60l92 84c-50,62 -126,96 -220,96 -162,0 -280,-110 -280,-266z"/>
  <path class="fil17 str0" d="M6404 309c0,-88 -60,-146 -138,-146 -77,0 -137,58 -137,146 0,89 60,146 137,146 78,0 138,-57 138,-146zm-421 0c0,-153 120,-266 283,-266 164,0 284,113 284,266 0,154 -120,266 -284,266 -163,0 -283,-112 -283,-266z"/>
  <polygon class="fil17 str0" points="7087,565 7085,294 6954,514 6890,514 6759,301 6759,565 6626,565 6626,53 6745,53 6924,349 7099,53 7218,53 7220,565 "/>
  <path class="fil17 str0" d="M7636 243c0,-48 -30,-76 -90,-76l-80 0 0 150 80 0c60,0 90,-28 90,-74zm146 0c0,116 -88,188 -227,188l-89 0 0 134 -144 0 0 -512 233 0c139,0 227,73 227,190z"/>
  <path class="fil17 str0" d="M8126 359l-66 -164 -65 164 131 0zm42 107l-216 0 -40 99 -147 0 225 -512 142 0 227 512 -151 0 -40 -99z"/>
  <polygon class="fil17 str0" points="8885,53 8885,565 8766,565 8541,292 8541,565 8399,565 8399,53 8518,53 8743,326 8743,53 "/>
  <polygon class="fil17 str0" points="9260,381 9260,565 9116,565 9116,379 8921,53 9074,53 9195,257 9316,53 9456,53 "/>
  <path class="fil18" d="M11386 6245c-189,256 -262,373 -335,445 -80,79 -894,19 -993,-23 -75,-31 -23,-129 12,-124 135,18 639,-70 788,-136 26,-11 282,-322 282,-322l246 160z"/>
  <path class="fil6" d="M11076 6077c160,-293 474,-509 569,-521 137,-18 183,9 143,120 -68,187 -193,385 -370,624l-342 -223z"/>
  <path class="fil10" d="M11374 6271l-5 -3 -247 -161 -46 -30c160,-293 474,-509 569,-521l0 0c-45,17 -123,236 -123,236 -102,222 -195,268 -189,309 6,44 15,106 41,170z"/>
  <path class="fil10 str2" d="M11645 5556c79,-28 112,-39 236,-71 146,-35 294,-59 443,-73 94,-11 187,-14 262,-14 8,-1 17,0 26,2 67,15 110,85 97,155 -147,776 -154,1120 -133,1520l-892 32c-23,1 -43,-16 -47,-40 -40,-201 -163,-649 -163,-649 -112,-107 -130,-240 -141,-317 -6,-41 87,-87 189,-309 0,0 78,-219 123,-236z"/>
  <path class="fil16" d="M12209 7088l-325 12c-49,-387 -39,-729 -23,-1114 105,386 204,724 348,1102z"/>
  <path class="fil18" d="M12303 10067c-8,-18 -16,-36 -24,-55 -350,-840 -619,-2537 -619,-2537l626 -320c0,0 178,1492 422,2463 37,148 75,283 115,399l-427 196 -93 -146z"/>
  <path class="fil19" d="M12279 10012l0 0c-23,-56 -46,-115 -68,-176 162,-20 266,-55 346,-87 -92,84 -186,171 -278,263z"/>
  <path class="fil18" d="M11707 7254c0,0 -286,2007 -219,2828 72,865 327,2347 327,2347l211 -14c0,0 126,-1116 -52,-2320 483,-1246 537,-2809 537,-2809l-804 -32z"/>
  <path class="fil19" d="M11815 12429c0,0 -133,-772 -234,-1526 -18,-136 -35,-271 -50,-401 -17,-149 -32,-291 -43,-420 -7,-85 -10,-184 -10,-292 134,36 456,55 586,56 -28,84 -58,167 -90,249l0 0c74,498 95,982 95,1377 0,34 0,68 0,100 0,3 0,6 0,9 -5,500 -43,834 -43,834l-211 14z"/>
  <path class="fil16" d="M12053 12481c15,27 23,58 24,90 6,116 14,425 14,425l-26 2c0,0 -15,-152 -33,-227 -17,-76 -29,-11 -67,72 -39,83 -148,167 -313,183 -194,18 -273,14 -219,-40 53,-54 179,-95 179,-95 0,0 169,-290 159,-485 -10,-208 230,-12 276,-41 16,2 -3,99 6,116z"/>
  <path class="fil16" d="M12722 9691c-123,27 -232,117 -554,149 -6,1 -13,2 -19,2 -14,1 -28,2 -43,3 -86,5 -581,-18 -673,-72 80,-826 237,-2581 237,-2581l378 -46 487 -14c0,0 538,556 414,1061 -185,755 -92,872 -227,1498z"/>
  <path class="fil18" d="M12572 6679c-26,-30 -43,-62 -37,-100 0,0 -1,-56 -2,-140 -3,-247 -5,-740 21,-805 56,-142 152,-218 203,-136 59,97 63,829 63,829 -14,484 -191,419 -248,352z"/>
  <path class="fil10 str2" d="M12455 5383l-30 54c-114,207 -377,473 -481,499 -24,-56 -61,-105 -107,-143 -56,27 -97,76 -116,135 -88,-143 -80,-325 -58,-415 52,-16 107,-32 160,-45 146,-34 294,-58 443,-71 66,-9 130,-13 189,-14z"/>
  <path class="fil12" d="M11781 5948c-13,-22 -26,-45 -38,-69 23,-37 55,-67 94,-86 7,6 14,12 21,19 -36,36 -63,91 -77,136z"/>
  <path class="fil12" d="M11944 5936l0 0c-23,-55 -48,-150 -48,-152 27,-8 63,-26 111,-60 221,-153 191,-307 191,-307 -9,-2 -18,-6 -27,-10 32,-4 64,-7 95,-10 66,-9 130,-13 189,-14l-30 54c-114,207 -377,473 -481,499zm-201 -57c-64,-134 -99,-290 -80,-366 52,-16 107,-32 160,-45 20,-4 39,-9 58,-13 23,57 22,121 -32,193 -19,25 -30,55 -29,86 1,28 12,54 47,54 8,0 17,-1 28,-4 -13,6 -25,16 -37,28 -7,-7 -14,-13 -21,-19 -39,19 -71,49 -94,86z"/>
  <path class="fil18" d="M11776 6391l-122 -166 -109 217c0,0 111,62 204,41l27 -92z"/>
  <polygon class="fil18" points="11460,6174 11408,6349 11544,6441 11654,6225 "/>
  <path class="fil6" d="M12575 7178l-451 12 -38 1 -98 3 -37 1 -265 7c-9,-1 -16,-4 -16,-10l-11 -85c-1,-5 7,-11 16,-11l262 -10 32 -2 129 -5 31 -1 435 -17c6,-1 12,2 15,7l11 96c4,7 -4,14 -15,14z"/>
  <path class="fil20" d="M12580 7075l-36 -13 20 -1c0,0 1,0 2,0 5,0 10,2 13,7l1 7z"/>
  <path class="fil16" d="M11810 7210l29 -1c6,1 11,-3 10,-7l-16 -121c0,-3 -6,-6 -12,-6l-28 0c-6,0 -11,4 -10,7l16 121c2,4 5,7 11,7z"/>
  <path class="fil16" d="M12314 7202l27 0c6,0 10,-4 10,-7l-17 -121c1,-4 -5,-7 -11,-6l-27 0c-6,0 -10,3 -9,7l16 121c0,4 5,6 11,6z"/>
  <path class="fil6" d="M12464 7724l-70 -25 313 -938c50,-149 31,-291 -154,-356 -172,-61 -308,26 -358,174l-316 935 -70 -25 317 -934c58,-173 171,-290 442,-194 272,96 266,251 208,425l-312 938z"/>
  <path class="fil10" d="M12640 8302l-1370 -493 311 -909c30,-89 126,-136 213,-105l998 355c113,40 174,166 136,282l-288 870z"/>
  <path class="fil21" d="M12866 7620l0 0 62 -188c7,-23 11,-47 11,-71 0,24 -4,48 -11,71l-62 188z"/>
  <path class="fil22" d="M12691 8147l175 -527 -174 526c0,0 0,1 -1,1z"/>
  <path class="fil21" d="M11603 7929l-182 -66c-1,0 -2,-1 -3,-1l185 67z"/>
  <polygon class="fil22" points="12180,8136 11603,7929 "/>
  <path class="fil9" d="M12541 8257c-17,0 -35,-3 -53,-9l-308 -112 -577 -207 -185 -67c-82,-31 -124,-124 -95,-208l258 -754c24,-71 89,-115 158,-115 18,0 36,3 55,10l224 79 -209 615 13 73 57 -48 208 -615 513 183 -206 617 15 73 55 -48 205 -618 123 44c90,32 147,119 147,211 0,24 -4,48 -11,71l-62 188 -175 527c-22,68 -84,110 -150,110z"/>
  <path class="fil8" d="M12669 7106l-69 -24 107 -321c15,-44 23,-88 23,-130 0,-97 -47,-181 -177,-226 -38,-14 -74,-20 -108,-20 -120,0 -211,78 -250,194l-108 320 -69 -25 108 -319c44,-130 118,-229 268,-229 49,0 107,11 174,35 183,65 240,156 240,262 0,51 -13,106 -32,163l-107 320z"/>
  <path class="fil10" d="M12409 7772l-15 -73 206 -617 69 24 -205 618 -55 48zm-587 -210l-13 -73 209 -615 69 25 -208 615 -57 48z"/>
  <polygon class="fil8" points="12021,7159 11906,7119 11921,7075 12035,7116 "/>
  <polygon class="fil8" points="11926,7440 11811,7399 11826,7356 11940,7397 "/>
  <polygon class="fil8" points="12608,7369 12493,7328 12508,7285 12623,7326 "/>
  <polygon class="fil8" points="12514,7651 12399,7610 12414,7566 12529,7607 "/>
  <polygon class="fil23" points="12381,7316 12136,7228 12167,7135 12412,7223 "/>
  <path class="fil18" d="M12677 6722c-110,64 -555,-8 -931,-235 -18,-10 -36,-9 -42,-13 -23,-18 36,-57 71,-75 20,-11 850,95 908,103 63,169 5,167 -6,220z"/>
  <path class="fil18" d="M12323 10135c60,173 263,249 405,142 6,-5 11,-9 16,-14 615,-571 1398,-1402 1398,-1402l-132 -167c0,0 -621,341 -1302,924 -142,121 -287,253 -429,394l0 0 44 123z"/>
  <path class="fil19" d="M12581 10326c-99,0 -197,-60 -245,-160 -5,-10 -10,-20 -13,-31l-44 -123 0 0c142,-141 287,-273 429,-394 681,-583 1302,-924 1302,-924l132 167c0,0 -25,26 -69,72 -13,14 -28,30 -45,47 -60,63 -140,147 -235,245 -6,6 -12,12 -17,18 -123,127 -269,275 -422,429 -44,44 -89,89 -135,134 -126,125 -256,251 -380,369 -32,30 -64,59 -95,88 -5,5 -10,9 -16,14 -23,17 -47,29 -72,37 -24,8 -50,12 -75,12z"/>
  <path class="fil16" d="M13930 8714c9,-29 24,-54 45,-75 74,-77 273,-276 273,-276l19 18c0,0 -90,106 -129,166 -39,61 12,29 93,6 81,-23 209,5 329,118 142,133 192,195 121,189 -72,-6 -184,-74 -184,-74 0,0 -305,56 -428,186 -133,141 -162,-164 -212,-180 -10,-14 68,-61 73,-78z"/>
  <path class="fil18" d="M11819 5358c67,79 118,174 30,290 -19,25 -30,55 -29,86 2,50 34,96 187,-10 221,-153 191,-307 191,-307 -124,-29 -214,-281 -251,-425l-128 366z"/>
  <path class="fil24" d="M11865 5421c-3,-5 -7,-10 -10,-15 4,5 7,10 10,15 0,0 0,0 0,0z"/>
  <path class="fil25" d="M11865 5421c-3,-5 -6,-10 -10,-15 -11,-17 -22,-33 -35,-48l75 -217c22,20 41,44 54,71 22,62 -37,166 -84,209z"/>
  <path class="fil16" d="M11291 4686c-59,230 29,482 191,655 164,-180 473,-142 646,-313 115,-114 136,-305 65,-451 -77,-157 -303,-309 -482,-284 -200,28 -370,199 -420,393z"/>
  <path class="fil18" d="M11973 4607c-100,-147 -300,-185 -447,-84 -208,140 -169,492 -77,691 102,223 400,232 539,14 93,-146 73,-245 39,-481 -7,-50 -25,-98 -54,-140z"/>
  <path class="fil26" d="M11567 5101c-22,10 -48,11 -70,1 20,-43 34,-89 42,-136l28 135z"/>
  <path class="fil16" d="M11747 5080l-3 -7 -8 3c-20,44 -61,76 -109,84l-5 7 1 0 6 5c9,-2 18,-5 27,-8 40,-14 73,-45 91,-84z"/>
  <path class="fil16" d="M11580 4415c-18,30 -31,64 -35,99 275,63 477,351 555,625 74,-97 220,-217 276,-335 63,-132 -21,-283 -147,-355 -87,-50 -253,-107 -348,-138 -112,-36 -239,4 -301,104z"/>
  <path class="fil18" d="M12130 4889c-9,-42 -50,-69 -92,-61 -57,13 -79,94 -75,146 4,58 49,97 99,62 36,-28 61,-69 68,-115 2,-10 2,-21 0,-32z"/>
  <path class="fil16" d="M11678 4866c6,23 -1,45 -16,49 -16,4 -33,-11 -39,-35 -6,-23 2,-45 16,-49 15,-4 33,12 39,35z"/>
  <path class="fil16" d="M11468 4941c6,23 -1,45 -16,49 -15,4 -32,-11 -38,-34 -6,-24 1,-45 16,-49 15,-5 32,11 38,34z"/>
  <path class="fil16" d="M11437 4906l-59 -1c0,0 39,36 59,1z"/>
  <path class="fil16" d="M11722 4762l4 -4c4,-6 2,-13 -3,-17l0 0c-37,-25 -83,-30 -124,-15 -6,3 -9,10 -6,16 2,6 9,8 15,6 34,-13 72,-8 102,13 4,2 8,2 12,1z"/>
  <path class="fil16" d="M11369 4888l3 -5c13,-35 41,-61 76,-70 7,-2 11,-8 10,-14l0 0c-2,-7 -8,-11 -14,-9 -43,11 -78,43 -94,84 -2,6 0,13 6,16 4,1 9,1 13,-2z"/>
  <path class="fil16" d="M11646 4831l-59 -1c0,0 40,35 59,1z"/>
  <path class="fil16" d="M11337 5018c26,144 144,344 268,421 -84,64 -234,-9 -323,-65 -88,-57 -143,-158 -158,-263 -16,-104 5,-211 41,-310 60,-163 175,-292 309,-400 27,-22 73,-39 90,-9 12,20 -1,46 -15,65 -130,190 -232,322 -212,561z"/>
  <path class="fil16" d="M11989 5282l-2 0c-5,-1 -8,-6 -7,-11 94,-380 -313,-670 -439,-750 -5,-2 -6,-8 -3,-12 2,-4 8,-5 12,-3 129,82 544,378 447,769 -1,4 -4,7 -8,7z"/>
  <polygon class="fil6" points="12060,5007 12052,5141 12088,5171 12106,5129 "/>
  <path class="fil6" d="M12652 5410c-57,-14 -118,2 -159,44 -44,47 -72,113 -80,178 -13,102 12,204 40,303 27,99 58,200 55,303 108,-59 264,-177 415,-191 -21,-240 -49,-400 -95,-479 -27,-46 -55,-93 -96,-126 -18,-14 -50,-25 -80,-32z"/>
  <path class="fil10 str2" d="M12508 6238c0,-4 0,-9 0,-13 0,-99 -29,-195 -55,-290 -23,-81 -44,-164 -44,-247 0,-19 1,-37 4,-56 8,-65 36,-131 80,-178 31,-32 74,-49 118,-49 14,0 28,2 41,5 30,7 62,18 80,32 41,33 69,80 96,126 46,79 74,239 95,479 -36,3 -72,13 -108,26 -104,37 -204,106 -283,152 -8,5 -16,9 -24,13z"/>
  <path class="fil18" d="M10091 6540c0,0 -265,44 -269,56 -3,12 -2,162 -2,162l238 -91 33 -127z"/>
  <polygon class="fil18" points="9820,6758 9596,6546 9696,6517 9862,6607 "/>
  <polygon class="fil27" points="3050,12128 3301,12114 3323,12709 3072,12722 "/>
  <path class="fil16" d="M3385 12655c77,48 190,91 396,111 46,5 61,110 -45,121 -106,11 -291,28 -367,37 -125,13 -171,24 -270,36 -24,3 -46,-15 -49,-40l-11 -226c0,-10 7,-18 17,-19l284 -31c15,-1 31,2 45,11z"/>
  <path class="fil28" d="M3062 12434l-6 -164 0 0 6 164 0 0zm250 -13l-6 -162 0 0 6 162 0 0z"/>
  <polygon class="fil29" points="3062,12434 3056,12270 3306,12259 3312,12421 "/>
  <path class="fil6" d="M3408 12683c27,-20 67,-48 84,-43 4,1 7,4 7,8 4,7 3,15 -1,22 -11,13 -44,18 -90,14l0 -1zm98 -7c7,-9 9,-22 4,-32 -2,-8 -8,-14 -15,-15 -32,-9 -98,47 -106,54l-1 6 5 5c22,3 45,3 68,1 17,0 33,-7 45,-19z"/>
  <path class="fil6" d="M3419 12587c9,0 13,4 12,7 0,31 -13,60 -34,82 -6,-28 -4,-57 7,-82 3,-4 8,-7 13,-7l2 0zm-22 105c24,-18 55,-75 47,-101 -3,-10 -13,-17 -23,-16 -10,0 -19,4 -25,11 -22,27 -7,100 -8,103l3 4 3 1 3 -2z"/>
  <polygon class="fil27" points="1070,11864 1318,11917 1137,12480 889,12427 "/>
  <path class="fil16" d="M1205 12480c58,70 178,156 367,240 42,19 24,122 -80,100 -105,-22 -311,-74 -386,-90 -123,-26 -171,-30 -268,-49 -24,-5 -39,-29 -34,-53l60 -218c3,-10 12,-16 22,-13l279 59c15,3 29,12 40,24z"/>
  <polygon class="fil28" points="977,12154 977,12154 999,12084 999,12084 "/>
  <polygon class="fil29" points="1225,12207 977,12154 999,12084 1247,12137 "/>
  <path class="fil10" d="M2647 6593c0,0 265,2291 285,3148 19,789 5,2535 5,2535l456 -21c0,0 190,-1623 245,-2418 50,-728 -106,-3057 -106,-3057l-885 -187z"/>
  <path class="fil8" d="M2903 9091c-43,-429 -88,-928 -126,-1358 26,-117 51,-228 74,-329 30,14 62,70 96,194 125,455 61,1198 -44,1493z"/>
  <polygon class="fil16" points="2863,12185 3452,12140 3425,12334 2929,12375 "/>
  <path class="fil10" d="M2130 6681c0,0 -426,2109 -574,2953 -136,778 -669,2427 -669,2427l455 96c0,0 753,-1668 962,-2438 191,-703 669,-2859 669,-2859l-843 -179z"/>
  <polygon class="fil16" points="876,11906 1487,12007 1423,12174 869,12057 "/>
  <path class="fil6" d="M1197 12490c33,-13 78,-25 92,-14 3,2 5,6 4,9 1,8 -2,16 -8,20 -14,9 -47,3 -90,-14l2 -1zm94 26c10,-7 15,-19 14,-31 0,-8 -3,-15 -10,-19 -27,-18 -108,15 -117,18l-4 6 4 5c20,10 42,18 64,23 16,5 34,4 49,-2z"/>
  <path class="fil6" d="M1238 12402c9,3 10,8 10,11 0,19 -33,53 -59,67 3,-29 14,-55 33,-76 4,-3 9,-3 14,-2l2 0zm-55 94c28,-10 76,-54 76,-82 0,-11 -7,-20 -17,-22 -9,-4 -19,-2 -26,3 -31,19 -40,91 -40,94l2 5 3 1 2 1z"/>
  <path class="fil6" d="M1297 7152c60,-59 68,-124 105,-193 25,-47 -33,-28 25,-22 21,2 43,14 62,21 50,20 98,43 148,61 44,16 121,9 158,30 60,35 3,191 -10,241 -15,60 78,92 93,31 21,-88 77,-243 10,-325 -42,-51 -106,-41 -164,-52 -109,-22 -221,-122 -336,-110 -39,4 -61,21 -78,57 -18,40 -7,85 -31,127 -12,22 -28,43 -46,60 -44,45 20,118 64,74z"/>
  <path class="fil30" d="M1878 7321l-93 -31c8,-34 37,-115 37,-175 0,-29 -7,-54 -27,-66 -37,-21 -114,-14 -158,-30 -50,-18 -98,-41 -148,-61 -19,-7 -41,-19 -62,-21 -9,-1 -15,-2 -19,-4l0 0c0,2 1,3 1,5 0,5 -2,12 -7,21 -33,61 -43,119 -87,173l-95 -32c2,-8 6,-15 13,-22 18,-17 34,-38 46,-60 24,-42 13,-87 31,-127 17,-36 39,-53 78,-57 6,0 13,-1 19,-1 108,0 214,90 317,111 58,11 122,1 164,52 23,28 32,67 32,108 0,75 -28,160 -42,217z"/>
  <path class="fil6" d="M1899 8704l-1601 -538c-103,-34 -158,-146 -123,-249l315 -942c20,-60 84,-92 144,-72l1757 590c60,20 92,85 72,145l-315 942c-35,103 -146,158 -249,124z"/>
  <path class="fil10" d="M1962 8714c-21,0 -42,-3 -63,-10l-1601 -538c-82,-27 -134,-104 -134,-186 0,-21 4,-42 11,-63l258 -772c-33,147 49,298 195,347l745 250 -238 679 34 12 237 -680 633 213c31,10 63,15 94,15 124,0 240,-79 281,-203l13 -37c2,-8 4,-17 5,-26 8,-15 16,-32 21,-49l6 -16 -311 930c-28,82 -104,134 -186,134zm-450 -1516l-880 -296c1,1 1,1 2,1l878 295zm-1052 -136l30 -87c0,0 0,0 0,-1l-10 30c-5,15 -9,30 -11,45 -3,4 -6,9 -9,13z"/>
  <polygon class="fil6" points="1169,8433 1135,8421 1412,7630 1445,7642 "/>
  <polygon class="fil30" points="1169,8433 1135,8421 1373,7742 1406,7753 "/>
  <path class="fil28" d="M433 7145c2,-10 5,-20 8,-29l12 -37c2,-6 5,-11 7,-17l-27 83z"/>
  <path class="fil8" d="M2133 7981c-31,0 -63,-5 -94,-15l-633 -213 39 -111 -17 -7 650 219c31,10 63,15 94,15 107,0 207,-58 260,-154 -1,9 -3,18 -5,26l-13 37c-41,124 -157,203 -281,203zm-760 -239l-745 -250c-146,-49 -228,-200 -195,-347l27 -83c3,-4 6,-9 9,-13 -3,17 -4,33 -4,49l0 0c0,124 78,240 202,282l745 250 -39 112z"/>
  <polygon class="fil31" points="1406,7753 1373,7742 1412,7630 1428,7635 1445,7642 "/>
  <path class="fil6" d="M2399 7496l-1773 -596c-55,-18 -115,12 -134,67l-12 37c-52,155 32,324 187,376l1411 474c155,52 323,-32 375,-188l13 -37c18,-55 -12,-115 -67,-133z"/>
  <path class="fil6" d="M2399 7496l-1773 -596c-55,-18 -115,12 -134,67l-12 37c-52,155 32,324 187,376l1411 474c155,52 323,-32 375,-188l13 -37c18,-55 -12,-115 -67,-133z"/>
  <path class="fil9" d="M2172 7869c-31,0 -63,-5 -94,-15l-650 -219 -16 -5 -745 -250c-124,-42 -202,-158 -202,-282 0,-31 5,-63 15,-94l12 -37c15,-44 56,-72 100,-72 11,0 23,2 34,5l1773 596c44,15 72,56 72,100 0,11 -2,22 -5,33l-13 37c-41,124 -157,203 -281,203z"/>
  <path class="fil6" d="M849 7695l-59 -19c-36,-13 -55,-51 -43,-87l89 -268c13,-36 51,-55 87,-43l59 20c36,12 55,51 43,87l-89 267c-12,36 -51,55 -87,43z"/>
  <path class="fil6" d="M1804 8016l-59 -20c-35,-12 -55,-51 -43,-87l90 -267c12,-36 50,-55 86,-43l59 19c36,13 55,51 43,87l-89 268c-12,36 -51,55 -87,43z"/>
  <path class="fil23" d="M849 7695l-59 -19c-36,-13 -55,-51 -43,-87l89 -268c13,-36 51,-55 87,-43l59 20c36,12 55,51 43,87l-89 267c-12,36 -51,55 -87,43z"/>
  <path class="fil23" d="M1804 8016l-59 -20c-35,-12 -55,-51 -43,-87l90 -267c12,-36 50,-55 86,-43l59 19c36,13 55,51 43,87l-89 268c-12,36 -51,55 -87,43z"/>
  <path class="fil16" d="M3853 4878c16,31 36,69 55,103 18,35 38,70 58,104 41,69 82,137 125,201 43,62 88,122 137,179 39,48 86,90 138,124l7 4 1 0 2 1c0,0 3,1 9,2 19,-1 39,-5 56,-14 61,-28 117,-66 166,-111 59,-50 114,-104 166,-162 26,-29 53,-58 79,-89 26,-31 52,-63 75,-91l4 -6c42,-62 127,-79 190,-37 62,42 79,127 37,190 -87,159 -193,307 -316,441 -70,74 -150,138 -239,189 -56,32 -118,52 -183,61 -39,5 -78,4 -117,-4 -20,-3 -40,-8 -59,-15 -10,-2 -21,-8 -28,-11l-21 -10c-95,-49 -181,-114 -254,-192 -66,-66 -127,-137 -182,-213 -54,-73 -104,-147 -151,-223 -24,-37 -46,-74 -68,-114 -22,-40 -43,-76 -65,-120 -53,-105 -11,-232 93,-285 105,-53 232,-12 285,93l0 5z"/>
  <path class="fil27" d="M5044 5235l199 72 -14 -233c0,0 -207,-74 -234,37l0 51c-1,32 19,61 49,73z"/>
  <polygon class="fil27" points="5448,5252 5490,5053 5229,5074 5243,5307 "/>
  <path class="fil32" d="M3913 5695c-24,-27 -46,-54 -68,-81 -28,-36 -55,-72 -80,-110 20,-190 24,-338 22,-454 50,46 94,117 120,220 29,140 31,284 6,425z"/>
  <path class="fil23" d="M3456 6963l-1326 -282c16,-120 124,-501 208,-997 53,-343 83,-688 91,-1034l1 -3c5,-90 81,-158 171,-153l3 0c82,6 185,15 285,31 190,29 378,69 564,119 61,20 121,44 179,72 83,36 140,114 148,205 23,290 12,858 -324,2042z"/>
  <path class="fil8" d="M3289 4836l-38 76c-7,14 -19,22 -30,21l-65 -5c-10,-1 -17,-9 -21,-21l-27 -91 99 -62 82 82z"/>
  <path class="fil16" d="M2874 4501c-104,-17 -213,-26 -300,-32l-3 -1 -5 0c-94,-3 -173,71 -176,165 -8,251 -28,692 -96,1090 -129,926 -256,1110 -256,1110l591 112c179,-841 317,-1989 302,-2436l-57 -8z"/>
  <path class="fil32" d="M2314 5595c43,-298 62,-607 71,-832 3,-3 6,-6 9,-8 12,-10 25,-15 41,-15 84,0 211,146 168,387 -47,270 -178,432 -289,468z"/>
  <path class="fil16" d="M3556 7155l-358 -96c225,-1575 277,-1994 227,-2436 88,24 175,52 261,84 91,44 152,133 161,234 30,247 -157,878 -291,2214z"/>
  <path class="fil16" d="M3144 6505c37,-18 83,-3 101,34l0 0c19,38 4,83 -33,102 -38,19 -83,4 -102,-34 -19,-37 -3,-83 34,-101l0 -1z"/>
  <path class="fil23" d="M3100 6614c-23,-43 -6,-97 38,-119 21,-11 45,-12 67,-5 45,13 71,59 61,105 -12,47 -59,77 -106,65 -26,-5 -48,-22 -60,-46z"/>
  <path class="fil27" d="M3215 4756c-282,-44 -349,-233 -349,-233 149,-97 172,-439 169,-630l124 158 169 214c-11,27 -22,53 -30,81 -35,109 -27,217 128,291 0,0 31,156 -211,119z"/>
  <path class="fil23" d="M2814 4490l93 -14c74,113 173,208 290,276 -62,25 -115,68 -152,123 -277,-164 -231,-385 -231,-385z"/>
  <path class="fil23" d="M3429 4621l-77 -34c0,0 -68,160 -156,166 133,87 142,163 142,163 221,-23 91,-295 91,-295z"/>
  <path class="fil24" d="M3283 4411c0,0 0,0 0,0 3,-22 8,-43 15,-65 3,-9 5,-17 9,-26l0 0 -24 91z"/>
  <path class="fil29" d="M3283 4411c-57,-26 -120,-93 -143,-159 48,37 106,61 166,67l1 1c-4,9 -6,17 -9,26 -7,22 -12,43 -15,65z"/>
  <path class="fil16" d="M3485 3947c0,0 9,127 141,79 5,-136 50,-125 95,-204 61,-89 68,-205 18,-300l-84 -43c-328,-101 -170,468 -170,468z"/>
  <path class="fil33" d="M3739 3793c8,-107 -6,-214 -56,-299l56 28c22,42 33,89 33,135 0,47 -11,93 -33,136z"/>
  <path class="fil27" d="M3143 3435c122,-138 332,-150 469,-27 204,173 132,543 17,743 -32,59 -81,106 -141,136 -162,81 -359,15 -440,-147 -84,-165 -39,-306 17,-552 12,-57 39,-110 78,-153z"/>
  <path class="fil16" d="M3025 3812c0,0 33,110 153,51 -21,-118 24,-115 54,-190 42,-86 26,-188 -41,-266l-90 -26c-430,-41 -76,431 -76,431z"/>
  <path class="fil33" d="M3113 3880c-67,0 -88,-68 -88,-68 0,0 -137,-183 -137,-311 0,-69 40,-123 163,-123 15,0 32,1 50,3l90 26c42,49 64,107 64,165 0,35 -8,69 -23,101 -25,61 -59,70 -59,137 0,15 1,32 5,53 -25,12 -47,17 -65,17z"/>
  <path class="fil16" d="M3452 3136c-44,-17 -97,-8 -132,23 -24,21 -47,52 -77,46 -16,-3 -28,-16 -40,-25 -50,-35 -121,-20 -169,17 -48,37 -78,92 -110,144 -31,52 -68,104 -122,132 97,47 215,50 314,8 -28,34 -67,58 -110,69 98,28 207,19 299,-25 52,-25 101,-61 158,-71 57,-10 128,21 133,79 8,-30 49,-40 78,-27 28,14 46,42 61,70 15,27 31,56 58,73 27,16 68,12 82,-16 -42,-2 -79,-39 -80,-81 30,17 67,23 101,16 -46,-3 -135,-166 -149,-210 -14,-44 -35,-88 -73,-114 -43,-30 -86,21 -126,0 -39,-21 -51,-91 -96,-108z"/>
  <path class="fil16" d="M3395 4025c-33,-27 -54,-67 -58,-110 24,10 48,19 72,29 30,11 115,47 96,95 -18,44 -87,5 -110,-14z"/>
  <path class="fil16" d="M3597 4102c42,0 83,-19 113,-49 -25,-8 -49,-15 -74,-23 -31,-9 -120,-35 -135,14 -13,46 66,59 96,58z"/>
  <path class="fil34" d="M3499 4021c29,18 65,23 97,13 -23,-64 -38,-131 -43,-199l-54 186z"/>
  <path class="fil27" d="M3039 3641c60,21 84,121 81,184 -3,70 -49,113 -101,69 -40,-37 -66,-88 -73,-142 -9,-68 34,-131 93,-111z"/>
  <path class="fil16" d="M3436 3753c13,4 18,26 13,43 -6,18 -21,31 -33,27 -13,-4 -17,-23 -13,-43 6,-20 21,-31 33,-27z"/>
  <path class="fil16" d="M3658 3814c13,4 19,24 13,43 -6,20 -21,33 -34,28 -12,-4 -18,-23 -12,-43 6,-20 21,-32 33,-28z"/>
  <path class="fil16" d="M3477 4131c3,1 6,-1 7,-5 0,-3 -2,-6 -5,-7 -52,-7 -97,-38 -123,-83l-8 -3 -3 8c23,42 62,73 109,85 7,2 15,3 23,5z"/>
  <path class="fil16" d="M3651 3729c0,4 3,7 7,9 30,9 54,32 65,61 1,6 8,10 14,8l1 0c6,-2 10,-9 8,-15 -13,-37 -43,-65 -80,-77 -6,-2 -13,2 -15,8l0 6z"/>
  <path class="fil16" d="M3394 3667c4,2 8,3 12,2 29,-11 61,-8 88,8 5,4 13,3 17,-2l0 -1c4,-5 2,-13 -3,-17 -33,-21 -74,-25 -110,-11 -6,2 -10,9 -7,15l3 6z"/>
  <path class="fil27" d="M1495 6731l-46 -6c-107,52 9,251 9,251l317 -38 -92 -108c-48,-56 -115,-91 -188,-99z"/>
  <path class="fil27" d="M1784 7074l-10 -137 -317 39 18 163 1 7c7,25 33,41 59,34l213 -56c23,-6 38,-27 36,-50z"/>
  <path class="fil8" d="M3337 6156c0,0 -110,265 -158,229 -49,-37 -160,-240 -161,-244 0,-7 138,-1213 138,-1213l65 5c-27,136 116,1223 116,1223z"/>
  <path class="fil16" d="M1526 5501c-131,188 -163,1072 -129,1299 54,-64 158,-77 226,-28 3,-156 129,-712 183,-944 15,-65 53,-123 108,-162 232,-169 652,-502 698,-633 75,-212 10,-644 -176,-511 -175,126 -805,828 -910,979z"/>
  <path class="fil8" d="M12042 1045c0,0 -29,-6 -73,-23 -44,-18 -101,-47 -160,-76 -59,-28 -116,-43 -157,-47 -42,-4 -70,-1 -74,-11 -4,-8 20,-31 71,-40 51,-10 123,-1 191,32 68,33 115,79 149,111 33,32 53,54 53,54z"/>
  <path class="fil8" d="M12300 837c0,0 -21,9 -53,21 -32,13 -72,31 -116,51 -89,39 -165,80 -177,62 -6,-8 6,-28 31,-53 26,-25 66,-54 117,-76 51,-23 105,-25 141,-20 18,3 33,6 42,10 10,3 15,5 15,5z"/>
  <path class="fil8" d="M11564 1201c0,0 -6,-4 -15,-9 -9,-6 -23,-14 -39,-23 -33,-18 -79,-38 -130,-56 -104,-38 -196,-29 -199,-45 -1,-7 21,-19 61,-25 40,-6 97,-3 156,18 58,20 103,57 129,87 13,15 22,28 28,38 6,9 9,15 9,15z"/>
  <path class="fil8" d="M11665 986c0,0 -15,9 -37,22 -22,12 -51,29 -83,46 -62,34 -110,75 -122,64 -5,-5 0,-22 16,-44 16,-21 43,-48 80,-68 37,-20 75,-25 102,-25 27,1 44,5 44,5z"/>
  <path class="fil8" d="M11478 865c0,0 -35,-13 -89,-35 -54,-23 -125,-55 -204,-81 -79,-26 -154,-33 -208,-29 -54,3 -88,14 -93,4 -5,-8 24,-37 84,-55 60,-18 150,-20 239,10 90,30 157,81 201,119 45,39 70,67 70,67z"/>
  <path class="fil8" d="M11715 562c0,0 -7,2 -20,6 -12,3 -30,9 -52,15 -43,14 -99,36 -159,63 -120,54 -197,134 -214,121 -8,-6 2,-35 33,-73 30,-38 83,-83 151,-114 68,-32 137,-37 185,-33 24,2 43,6 56,9 13,4 20,6 20,6z"/>
  <path class="fil8 str0" d="M3575 1935c0,0 -30,-6 -74,-24 -44,-18 -101,-47 -160,-75 -59,-29 -115,-43 -157,-48 -42,-4 -70,-1 -74,-11 -4,-8 20,-31 71,-40 51,-10 123,-1 191,32 68,33 115,79 149,111 33,33 54,55 54,55z"/>
  <path class="fil8 str0" d="M3833 1727c0,0 -21,8 -54,20 -31,13 -71,31 -116,51 -89,39 -164,80 -177,62 -5,-8 6,-28 32,-53 25,-24 65,-54 116,-76 52,-23 105,-25 141,-20 19,3 33,6 43,10 9,3 15,6 15,6z"/>
  <path class="fil8" d="M3096 2090c0,0 -5,-3 -15,-9 -9,-6 -22,-14 -39,-23 -33,-18 -78,-38 -130,-56 -103,-37 -196,-29 -199,-45 -1,-7 22,-19 62,-25 39,-5 96,-2 155,18 59,20 104,57 129,87 14,15 23,28 28,38 6,9 9,15 9,15z"/>
  <path class="fil8" d="M3197 1876c0,0 -15,9 -37,21 -22,12 -51,29 -82,46 -63,35 -111,75 -123,64 -5,-5 0,-22 16,-43 16,-22 44,-49 80,-69 37,-20 76,-25 103,-25 27,1 43,6 43,6z"/>
 </g>
</svg>
